<svg width="64" height="52" viewBox="0 0 64 52" fill="none" xmlns="http://www.w3.org/2000/svg">
<circle cx="12" cy="37" r="12" fill="#FFF4CD"/>
<g clip-path="url(#clip0_2_14940)">
<path d="M61.4109 42.6654L50.6875 31.9419L55.0248 30.3633C55.3946 30.2287 55.6144 29.8481 55.5459 29.4605L54.384 22.8714L57.7294 17.077C57.9261 16.7363 57.8499 16.3034 57.5484 16.0505L52.423 11.7499L51.2611 5.16071C51.1927 4.77325 50.8562 4.49081 50.4626 4.49081H43.7717L38.6466 0.189744C38.345 -0.0632479 37.9056 -0.0632479 37.604 0.189744L32.4787 4.4905H25.7879C25.3943 4.4905 25.0577 4.77295 24.9894 5.16041L23.8275 11.7495L18.702 16.0502C18.4005 16.3031 18.3242 16.736 18.521 17.0767L21.8664 22.8711L20.7046 29.4602C20.6361 29.8478 20.8559 30.2283 21.2257 30.363L25.3795 31.8747L14.589 42.6654C14.3659 42.8887 14.2924 43.2214 14.4011 43.5177C14.5097 43.8142 14.7804 44.0206 15.0951 44.0468L21.7501 44.6015L22.3049 51.2565C22.3311 51.5711 22.5375 51.8419 22.8339 51.9505C22.9249 51.9839 23.0192 52 23.1127 52C23.3241 52 23.5314 51.9173 23.6862 51.7626L38 37.4488L52.3138 51.7626C52.4687 51.9173 52.676 52 52.8873 52C52.9809 52 53.0752 51.9839 53.1661 51.9505C53.4626 51.8419 53.6689 51.5711 53.695 51.2565L54.2499 44.6016L60.9049 44.0469C61.2195 44.0207 61.4903 43.8143 61.5988 43.5177C61.7075 43.2213 61.6341 42.8888 61.4109 42.6654ZM23.7757 49.3797L23.3092 43.7831C23.2763 43.3886 22.9633 43.0753 22.5685 43.0424L16.9719 42.576L27.0609 32.487L27.513 32.6515L30.8584 38.4459C31.0066 38.7028 31.2778 38.8515 31.5608 38.8515C31.6532 38.8515 31.7468 38.8356 31.8379 38.8025L35.7914 37.3636L23.7757 49.3797ZM38.7864 35.0293L38.4024 34.8896C38.2233 34.8243 38.0269 34.8243 37.8479 34.8896L37.2791 35.0966L31.9226 37.0461L28.7698 31.5853C28.6745 31.4202 28.5241 31.294 28.345 31.2287L27.1303 30.7865L22.4197 29.0721L23.5148 22.8625C23.548 22.6746 23.5139 22.4812 23.4186 22.3161L20.2657 16.8553L25.0962 12.8022C25.2423 12.6797 25.3405 12.5097 25.3734 12.322L26.4683 6.11225H32.7738C32.9646 6.11225 33.1491 6.04511 33.295 5.92253L38.1253 1.86938L42.9556 5.92253C43.1017 6.04511 43.2862 6.11225 43.4769 6.11225H49.7825L50.8774 12.322C50.9105 12.5097 51.0086 12.6798 51.1546 12.8022L55.985 16.8553L52.8322 22.3161C52.7368 22.4811 52.7028 22.6746 52.7359 22.8624L53.8309 29.072L48.9369 30.8533L47.9056 31.2287C47.7265 31.294 47.576 31.4201 47.4808 31.5853L44.3281 37.0461L38.7878 35.0297L38.7864 35.0293ZM53.4315 43.0425C53.0369 43.0754 52.7237 43.3885 52.6908 43.7832L52.2244 49.3798L40.0651 37.2202L44.4126 38.8026C44.5037 38.8358 44.5973 38.8516 44.6897 38.8516C44.9727 38.8516 45.2438 38.7029 45.3921 38.446L48.7374 32.6516L49.0059 32.5539L59.0281 42.5761L53.4315 43.0425Z" fill="#7EB693"/>
<path d="M38.0002 6.95923C30.8765 6.95923 25.0811 12.7547 25.0811 19.8784C25.0811 27.002 30.8766 32.7974 38.0002 32.7974C45.1239 32.7974 50.9192 27.0019 50.9192 19.8784C50.9192 12.7548 45.1238 6.95923 38.0002 6.95923ZM38.0002 31.1757C31.7708 31.1757 26.7027 26.1077 26.7027 19.8783C26.7027 13.6488 31.7708 8.58087 38.0002 8.58087C44.2295 8.58087 49.2977 13.6489 49.2977 19.8784C49.2977 26.1078 44.2295 31.1757 38.0002 31.1757Z" fill="#274C5B"/>
<path d="M47.3318 17.2964C47.2233 16.9622 46.912 16.736 46.5607 16.736H40.5764L38.7273 11.0447C38.6187 10.7106 38.3074 10.4844 37.9561 10.4844C37.6049 10.4844 37.2935 10.7106 37.1849 11.0447L35.3357 16.736H29.3514C29.0002 16.736 28.6888 16.9622 28.5803 17.2964C28.4717 17.6304 28.5906 17.9964 28.8749 18.2029L33.7163 21.7203L31.867 27.4118C31.7585 27.7458 31.8774 28.1118 32.1617 28.3183C32.3038 28.4216 32.4709 28.4732 32.6382 28.4732C32.8055 28.4732 32.9726 28.4215 33.1147 28.3183L37.9561 24.801L42.7974 28.3183C43.0815 28.5248 43.4664 28.5248 43.7504 28.3183C44.0346 28.1119 44.1534 27.7459 44.0451 27.4118L42.1958 21.7203L47.0372 18.2029C47.3215 17.9964 47.4403 17.6304 47.3318 17.2964ZM40.7661 20.7548C40.482 20.9611 40.363 21.3272 40.4715 21.6613L41.7316 25.5396L38.4325 23.1428C38.1484 22.9363 37.7635 22.9363 37.4795 23.1428L34.1803 25.5397L35.4404 21.6613C35.549 21.3273 35.43 20.9612 35.1458 20.7549L31.8468 18.3579H35.9249C36.2761 18.3579 36.5874 18.1317 36.696 17.7976L37.9561 13.9193L39.2161 17.7976C39.3247 18.1317 39.6359 18.3579 39.9872 18.3579H44.0653L40.7661 20.7548Z" fill="#FFA858"/>
</g>
<defs>
<clipPath id="clip0_2_14940">
<rect width="52" height="52" fill="white" transform="translate(12)"/>
</clipPath>
</defs>
</svg>
