<svg width="15" height="15" viewBox="0 0 15 15" fill="none" xmlns="http://www.w3.org/2000/svg">
<path d="M14.357 6.62026C15.0757 6.02159 14.6524 4.8519 13.717 4.8519H10.7026C10.281 4.8519 9.90473 4.58751 9.76182 4.1909L8.68497 1.20246C8.36691 0.3198 7.118 0.321564 6.80244 1.20512L5.73703 4.18824C5.59488 4.58623 5.2179 4.8519 4.79528 4.8519H1.98664C1.02699 4.8519 0.618319 6.07243 1.3845 6.65028L3.9115 8.55615C4.26144 8.82008 4.39872 9.28112 4.25016 9.69348L3.20447 12.596C2.89604 13.4522 3.79852 14.2418 4.60612 13.8225L7.27916 12.4344C7.56807 12.2844 7.91193 12.2844 8.20084 12.4344L11.113 13.9466C11.8869 14.3485 12.7685 13.6363 12.5384 12.7952L11.6698 9.62053C11.5664 9.24257 11.6932 8.83905 11.9943 8.58826L14.357 6.62026ZM7.75609 10.8701C7.746 10.8649 7.734 10.8649 7.72392 10.8701V10.8701L7.74 1.24674L9.24938 5.04524C9.40068 5.42602 9.76896 5.67597 10.1787 5.67597H13.9121L10.9817 8.1013C10.687 8.34522 10.5573 8.7359 10.6476 9.10766L11.5546 12.8425L7.75609 10.8701Z" fill="#FFA858"/>
</svg>
