<svg width="61" height="49" viewBox="0 0 61 49" fill="none" xmlns="http://www.w3.org/2000/svg">
<circle cx="12" cy="22" r="12" fill="#FFF4CD"/>
<g clip-path="url(#clip0_2_14930)">
<path d="M36.4714 3.83783C32.1627 3.29696 26.7673 4.60393 22.0387 7.33402C16.1898 10.7109 12.6027 15.5046 12.1975 20.486C12.0071 22.8256 12.5111 25.1749 13.6954 27.4686C14.75 29.511 16.3535 31.5172 18.4717 33.4487C16.5959 24.2699 20.2862 14.1026 28.5526 9.33005C28.5526 9.33005 21.9927 15.8321 20.7695 24.9446C20.7686 24.95 20.7502 25.0672 20.7264 25.2833C20.5043 27.1536 20.5105 29.1305 20.8447 31.1807C21.2475 34.3701 22.2815 38.4683 24.7321 42.7127L28.1962 40.7127C28.1962 40.7127 25.7606 37.7086 24.4787 33.3764C26.1093 32.7076 27.5202 32.0283 28.7379 31.3253C31.9227 29.4866 33.7898 27.4899 34.6141 25.0415C35.3527 22.8477 35.1534 20.5881 34.9423 18.196C34.62 14.5424 34.2547 10.4015 37.2106 5.33389C37.3798 5.0438 37.3921 4.68812 37.2433 4.38705C37.0946 4.08598 36.8046 3.87968 36.4714 3.83783Z" fill="#7EB693"/>
</g>
<g clip-path="url(#clip1_2_14930)">
<path d="M60.604 21.203C57.143 18.5802 51.817 17.0144 46.3569 17.0144C39.6031 17.0144 34.0998 19.3724 31.2581 23.4838C29.9235 25.4147 29.1853 27.7012 29.0641 30.2798C28.9562 32.5759 29.3417 35.115 30.2105 37.8469C33.1753 28.9599 41.4549 22 51 22C51 22 42.068 24.351 36.4524 31.631C36.4489 31.6353 36.3745 31.7275 36.2457 31.9028C35.1182 33.4115 34.1352 35.1266 33.3995 37.0693C32.1536 40.0327 31 44.0989 31 49H35C35 49 34.3929 45.1805 35.4488 40.7878C37.1954 41.0239 38.7569 41.1411 40.1629 41.1411C43.8404 41.1411 46.4557 40.3455 48.3938 38.6372C50.1303 37.1067 51.0875 35.0502 52.1008 32.873C53.6484 29.5477 55.4025 25.7789 60.4962 22.8682C60.7878 22.7016 60.9763 22.3997 60.998 22.0646C61.0197 21.7295 60.8717 21.4058 60.604 21.203Z" fill="#7EB693"/>
</g>
<defs>
<clipPath id="clip0_2_14930">
<rect width="32" height="32" fill="white" transform="translate(7 16) rotate(-30)"/>
</clipPath>
<clipPath id="clip1_2_14930">
<rect width="32" height="32" fill="white" transform="translate(29 17)"/>
</clipPath>
</defs>
</svg>
